<?xml version="1.0" encoding="UTF-8" standalone="no"?>
<!-- Created with Inkscape (http://www.inkscape.org/) -->

<svg
   width="45"
   height="45"
   viewBox="0 0 11.90625 11.90625"
   version="1.1"
   id="svg1"
   sodipodi:docname="banner.svg"
   inkscape:version="1.4.3 (0d15f75042, 2025-12-25)"
   xmlns:inkscape="http://www.inkscape.org/namespaces/inkscape"
   xmlns:sodipodi="http://sodipodi.sourceforge.net/DTD/sodipodi-0.dtd"
   xmlns="http://www.w3.org/2000/svg"
   xmlns:svg="http://www.w3.org/2000/svg">
  <sodipodi:namedview
     id="namedview1"
     pagecolor="#505050"
     bordercolor="#ffffff"
     borderopacity="1"
     inkscape:showpageshadow="0"
     inkscape:pageopacity="0"
     inkscape:pagecheckerboard="1"
     inkscape:deskcolor="#505050"
     inkscape:zoom="5.9"
     inkscape:cx="23.898305"
     inkscape:cy="12.881356"
     inkscape:window-width="1366"
     inkscape:window-height="687"
     inkscape:window-x="0"
     inkscape:window-y="0"
     inkscape:window-maximized="1"
     inkscape:current-layer="svg1" />
  <defs
     id="defs1">
    <linearGradient
       id="swatch29">
      <stop
         style="stop-color:#000000;stop-opacity:1;"
         offset="0"
         id="stop29" />
    </linearGradient>
  </defs>
  <g
     id="layer1"
     transform="matrix(0.3,0,0,0.3,-5.297976,-5.2514122)">
    <g
       id="g24"
       style="fill:#d40000;fill-opacity:1;stroke:#000000;stroke-width:0.7;stroke-dasharray:none;stroke-opacity:1">
      <path
         id="path29"
         style="fill:#d40000;fill-opacity:1;fill-rule:evenodd;stroke:#000000;stroke-width:0.7;stroke-linejoin:round;stroke-dasharray:none;stroke-opacity:1"
         d="m 40.39756,21.304409 12.556708,8.974418 V 47.223702 L 40.39756,33.632952 Z"
         points="52.954268,30.278827 52.954268,47.223702 40.39756,33.632952 40.39756,21.304409 " />
      <path
         id="path24"
         style="fill:#d40000;fill-opacity:1;fill-rule:evenodd;stroke:#000000;stroke-width:0.7;stroke-linejoin:round;stroke-dasharray:none;stroke-opacity:1"
         d="M 22.622944,23.325573 V 37.454526 L 40.39756,33.632952 V 21.304409 Z"
         points="22.622944,37.454526 40.39756,33.632952 40.39756,21.304409 22.622944,23.325573 " />
      <path
         id="path28"
         style="fill:#d40000;fill-opacity:1;fill-rule:evenodd;stroke:#000000;stroke-width:0.7;stroke-linejoin:round;stroke-dasharray:none;stroke-opacity:1"
         d="M 22.622944,37.454526 29.77706,55.665771 52.954268,47.223702 40.39756,33.632952 Z"
         points="29.77706,55.665771 52.954268,47.223702 40.39756,33.632952 22.622944,37.454526 " />
      <path
         id="path25"
         style="fill:#d40000;fill-opacity:1;fill-rule:evenodd;stroke:#000000;stroke-width:0.7;stroke-linejoin:round;stroke-dasharray:none;stroke-opacity:1"
         d="M 22.622944,23.325573 29.77706,35.123019 52.954268,30.278827 40.39756,21.304409 Z"
         points="29.77706,35.123019 52.954268,30.278827 40.39756,21.304409 22.622944,23.325573 " />
      <path
         id="path27"
         style="fill:#d40000;fill-opacity:1;fill-rule:evenodd;stroke:#000000;stroke-width:0.7;stroke-linejoin:round;stroke-dasharray:none;stroke-opacity:1"
         d="M 29.77706,35.123019 V 55.665771 L 52.954268,47.223702 V 30.278827 Z"
         points="29.77706,55.665771 52.954268,47.223702 52.954268,30.278827 29.77706,35.123019 " />
      <path
         id="path26"
         style="fill:#d40000;fill-opacity:1;fill-rule:evenodd;stroke:#000000;stroke-width:0.7;stroke-linejoin:round;stroke-dasharray:none;stroke-opacity:1"
         d="M 22.622944,23.325573 29.77706,35.123019 V 55.665771 L 22.622944,37.454526 Z"
         points="29.77706,35.123019 29.77706,55.665771 22.622944,37.454526 22.622944,23.325573 " />
    </g>
    <path
       style="fill:#0000ff;fill-opacity:1;stroke:#000000;stroke-width:0.7;stroke-dasharray:none;stroke-opacity:1"
       d="m 27.355226,31.279131 c 0,5.941915 0,5.941915 0,5.941915 l 2.242232,4.036015 5.493467,-1.681673 0.112112,-5.829803 -2.466456,-3.811794 z"
       id="path35" />
    <path
       style="fill:none;fill-opacity:1;stroke:#000000;stroke-width:0.208026;stroke-dasharray:none;stroke-opacity:1"
       d="m 32.557035,29.864308 -0.236704,6.089501 -4.852393,1.26386"
       id="path36" />
    <path
       style="fill:none;fill-opacity:1;stroke:#000000;stroke-width:0.199375;stroke-dasharray:none;stroke-opacity:1"
       d="m 32.296955,36.037676 2.737986,3.558986"
       id="path37" />
  </g>
  <g
     id="layer2"
     style="display:none">
    <g
       id="g24-5"
       style="fill:#d40000;fill-opacity:1;stroke:#000000;stroke-width:0.2;stroke-dasharray:none;stroke-opacity:1">
      <path
         id="path29-6"
         style="fill:#d40000;fill-opacity:1;fill-rule:evenodd;stroke:#000000;stroke-width:0.2;stroke-linejoin:round;stroke-dasharray:none;stroke-opacity:1"
         d="m 47.265441,17.701607 12.363092,8.224001 v 10.09775 L 47.265441,25.24815 Z"
         points="59.628533,25.925608 59.628533,36.023358 47.265441,25.24815 47.265441,17.701607 " />
      <path
         id="path24-2"
         style="fill:#d40000;fill-opacity:1;fill-rule:evenodd;stroke:#000000;stroke-width:0.2;stroke-linejoin:round;stroke-dasharray:none;stroke-opacity:1"
         d="m 38.221171,18.210485 v 8.206556 l 9.04427,-1.168891 v -7.546543 z"
         points="38.221171,26.417041 47.265441,25.24815 47.265441,17.701607 38.221171,18.210485 " />
      <path
         id="path28-9"
         style="fill:#d40000;fill-opacity:1;fill-rule:evenodd;stroke:#000000;stroke-width:0.2;stroke-linejoin:round;stroke-dasharray:none;stroke-opacity:1"
         d="M 38.221171,26.417041 48.648897,38.934456 59.628533,36.023358 47.265441,25.24815 Z"
         points="48.648897,38.934456 59.628533,36.023358 47.265441,25.24815 38.221171,26.417041 " />
      <path
         id="path25-1"
         style="fill:#d40000;fill-opacity:1;fill-rule:evenodd;stroke:#000000;stroke-width:0.2;stroke-linejoin:round;stroke-dasharray:none;stroke-opacity:1"
         d="M 38.221171,18.210485 48.648897,27.619007 59.628533,25.925608 47.265441,17.701607 Z"
         points="48.648897,27.619007 59.628533,25.925608 47.265441,17.701607 38.221171,18.210485 " />
      <path
         id="path27-2"
         style="fill:#d40000;fill-opacity:1;fill-rule:evenodd;stroke:#000000;stroke-width:0.2;stroke-linejoin:round;stroke-dasharray:none;stroke-opacity:1"
         d="M 48.648897,27.619007 V 38.934456 L 59.628533,36.023358 V 25.925608 Z"
         points="48.648897,38.934456 59.628533,36.023358 59.628533,25.925608 48.648897,27.619007 " />
      <path
         id="path26-7"
         style="fill:#d40000;fill-opacity:1;fill-rule:evenodd;stroke:#000000;stroke-width:0.2;stroke-linejoin:round;stroke-dasharray:none;stroke-opacity:1"
         d="m 38.221171,18.210485 10.427726,9.408522 V 38.934456 L 38.221171,26.417041 Z"
         points="48.648897,27.619007 48.648897,38.934456 38.221171,26.417041 38.221171,18.210485 " />
    </g>
  </g>
</svg>
